# xmcd CD database file
#
# Track frame offsets:
#	187
#	20692
#	36500
#	56975
#
# Disc length: 967 seconds
#
# Revision: 0
# Processed by: cddbd v1.5PL3 Copyright (c) Steve Scherf et al.
# Submitted via: CDex 1.50
#
DISCID=3703c504
DTITLE=島崎和歌子 - 何かいい事きっとある
DYEAR=1993
DGENRE=JPop
TTITLE0=何かいい事きっとある
TTITLE1=Little Love
TTITLE2=何かいい事きっとある (ｶﾗｵｹ)
TTITLE3=Little Love (ｶﾗｵｹ)
EXTD=YEAR: 1993/03/03
EXTT0=
EXTT1=
EXTT2=
EXTT3=
PLAYORDER=
